<svg class="" width="147px" height="62px" viewBox="0 0 457 184" version="1.1" xmlns="http://www.w3.org/2000/svg" xmlns:xlink="http://www.w3.org/1999/xlink" title="Netzsch Logo" alt="Netzsch Logo"><g stroke="none" stroke-width="1" fill="none" fill-rule="evenodd"><g transform="translate(0.007857, 128.350800)" id="claim"><rect fill="#017167" x="442.992143" y="41.8561663" width="13" height="13"></rect><path d="M3.1108,53.4492 L3.1108,31.0373 L5.3025,31.0373 C10.6285667,31.0373 14.9059167,29.94145 18.13455,27.74975 C21.3631833,25.55805 22.9775,22.0584 22.9775,17.2508 C22.9775,14.6584667 22.51795,12.4667667 21.59885,10.6757 C20.67975,8.88463333 19.3718,7.52955 17.675,6.61045 C15.9782,5.69135 14.17535,5.04326667 12.26645,4.6662 C10.35755,4.28913333 8.2012,4.1006 5.7974,4.1006 L5.7974,4.1006 L0,4.1006 L0,53.4492 L3.1108,53.4492 Z M4.8783,28.3507 L3.1108,28.3507 L3.1108,6.8579 L5.3732,6.8579 C9.85086667,6.8579 13.3740833,7.62381667 15.94285,9.15565 C18.5116167,10.6874833 19.796,13.4094333 19.796,17.3215 C19.796,19.4896333 19.3953667,21.3278333 18.5941,22.8361 C17.7928333,24.3443667 16.6616333,25.48735 15.2005,26.26505 C13.7393667,27.04275 12.1839667,27.5847833 10.5343,27.89115 C8.88463333,28.1975167 6.9993,28.3507 4.8783,28.3507 L4.8783,28.3507 Z M33.7946,53.4492 L33.7946,35.5621 C33.7946,30.8016333 34.2659333,27.4080333 35.2086,25.3813 C36.8111333,21.6577667 39.1913667,19.796 42.3493,19.796 C43.0563,19.796 43.6454667,19.8667 44.1168,20.0081 L44.1168,20.0081 L44.1875,17.1801 C43.5747667,16.9915667 42.9856,16.8973 42.42,16.8973 C40.3932667,16.8973 38.63755,17.6043 37.15285,19.0183 C35.66815,20.4323 34.5487333,22.2705 33.7946,24.5329 L33.7946,24.5329 L33.6532,24.5329 C33.6532,21.9405667 33.5589333,19.6310333 33.3704,17.6043 L33.3704,17.6043 L30.401,17.6043 C30.6366667,20.0081 30.7545,23.4252667 30.7545,27.8558 L30.7545,27.8558 L30.7545,53.4492 L33.7946,53.4492 Z M60.5899,54.2269 C64.5491,54.2269 67.6599,52.5418833 69.9223,49.17185 C72.1847,45.8018167 73.3159,41.2416667 73.3159,35.4914 C73.3159,29.8825333 72.1847,25.3813 69.9223,21.9877 C67.6599,18.5941 64.6433667,16.8973 60.8727,16.8973 C56.8192333,16.8973 53.62595,18.5941 51.29285,21.9877 C48.95975,25.3813 47.7932,29.9532333 47.7932,35.7035 C47.7932,41.3123667 48.95975,45.8018167 51.29285,49.17185 C53.62595,52.5418833 56.7249667,54.2269 60.5899,54.2269 Z M60.6606,51.5403 C57.5969333,51.5403 55.2167,50.09095 53.5199,47.19225 C51.8231,44.29355 50.9747,40.4404 50.9747,35.6328 C50.9747,30.9194667 51.8231,27.0663167 53.5199,24.07335 C55.2167,21.0803833 57.5969333,19.5839 60.6606,19.5839 C63.7242667,19.5839 66.0809333,21.0686 67.7306,24.038 C69.3802667,27.0074 70.2051,30.8487667 70.2051,35.5621 C70.2051,40.4639667 69.3802667,44.3524667 67.7306,47.2276 C66.0809333,50.1027333 63.7242667,51.5403 60.6606,51.5403 Z M91.4858,53.4492 L102.2322,17.6043 L99.1214,17.6043 C93.7010667,36.3633667 90.6138333,47.369 89.8597,50.6212 L89.8597,50.6212 L89.7183,50.6212 C89.1527,47.8874667 86.1361667,36.8818333 80.6687,17.6043 L80.6687,17.6043 L77.4165,17.6043 L87.9508,53.4492 L91.4858,53.4492 Z M121.4626,54.2269 C123.772133,54.2269 126.105233,53.8498333 128.4619,53.0957 L128.4619,53.0957 L128.2498,50.1263 C126.223067,51.0689667 124.031367,51.5403 121.6747,51.5403 C117.951167,51.5403 114.99355,50.2441333 112.80185,47.6518 C110.61015,45.0594667 109.467167,41.2888 109.3729,36.3398 L109.3729,36.3398 L130.5829,36.3398 C130.630033,35.7270667 130.6536,34.8551 130.6536,33.7239 C130.6536,22.5061667 126.882933,16.8973 119.3416,16.8973 C115.5238,16.8973 112.401217,18.55875 109.97385,21.88165 C107.546483,25.20455 106.3328,29.6233 106.3328,35.1379 C106.3328,41.3595 107.6761,46.0964 110.3627,49.3486 C113.0493,52.6008 116.749267,54.2269 121.4626,54.2269 Z M127.6842,33.7239 L109.3729,33.7239 C109.561433,29.3405 110.5748,25.84085 112.413,23.22495 C114.2512,20.60905 116.537167,19.3011 119.2709,19.3011 C124.879767,19.3011 127.6842,24.1087 127.6842,33.7239 L127.6842,33.7239 Z M142.107,53.4492 L142.107,35.5621 C142.107,30.8016333 142.578333,27.4080333 143.521,25.3813 C145.2178,21.5635 147.763,19.6546 151.1566,19.6546 C153.089067,19.6546 154.58555,20.2673333 155.64605,21.4928 C156.70655,22.7182667 157.389983,24.2029667 157.69635,25.9469 C158.002717,27.6908333 158.1559,29.9768 158.1559,32.8048 L158.1559,32.8048 L158.1559,53.4492 L161.196,53.4492 L161.196,30.8252 C161.196,26.3475333 160.477217,22.9068 159.03965,20.503 C157.602083,18.0992 155.162933,16.8973 151.7222,16.8973 C149.554067,16.8973 147.6216,17.56895 145.9248,18.91225 C144.228,20.25555 142.9554,22.1291 142.107,24.5329 L142.107,24.5329 L141.9656,24.5329 C141.9656,21.9405667 141.871333,19.6310333 141.6828,17.6043 L141.6828,17.6043 L138.7134,17.6043 C138.949067,20.0081 139.0669,23.4252667 139.0669,27.8558 L139.0669,53.4492 L142.107,53.4492 Z M208.9389,53.4492 L208.9389,50.6919 L191.5467,50.6919 L191.5467,29.0577 L207.5249,29.0577 L207.5249,26.3004 L191.5467,26.3004 L191.5467,6.8579 L208.3733,6.8579 L208.3733,4.1006 L188.4359,4.1006 L188.4359,53.4492 L208.9389,53.4492 Z M218.1503,53.4492 C222.580833,45.2008667 225.5031,39.6391333 226.9171,36.764 L226.9171,36.764 L227.0585,36.764 C228.283967,39.2149333 231.276933,44.7766667 236.0374,53.4492 L236.0374,53.4492 L239.431,53.4492 L228.826,34.7844 L238.2998,17.6043 L235.1183,17.6043 C230.7349,26.0883 228.095433,31.2494 227.1999,33.0876 L227.1999,33.0876 L227.0585,33.0876 C225.9273,30.8252 223.146433,25.6641 218.7159,17.6043 L218.7159,17.6043 L215.3223,17.6043 L225.291,34.9258 L214.8274,53.4492 L218.1503,53.4492 Z M257.7321,53.6613 C259.098967,53.6613 260.536533,53.4963333 262.0448,53.1664 L262.0448,53.1664 L261.8327,50.4798 C260.654367,50.7626 259.405333,50.904 258.0856,50.904 C254.362067,50.904 251.416233,49.45465 249.2481,46.55595 C247.079967,43.65725 245.9959,39.9690667 245.9959,35.4914 C245.9959,31.108 247.044617,27.4551667 249.14205,24.5329 C251.239483,21.6106333 254.1264,20.1495 257.8028,20.1495 C259.2168,20.1495 260.4894,20.3144667 261.6206,20.6444 L261.6206,20.6444 L261.8327,17.8871 C260.7015,17.6043 259.334633,17.4629 257.7321,17.4629 C253.2073,17.4629 249.589817,19.1597 246.87965,22.5533 C244.169483,25.9469 242.8144,30.2831667 242.8144,35.5621 C242.8144,40.8881667 244.169483,45.2362167 246.87965,48.60625 C249.589817,51.9762833 253.2073,53.6613 257.7321,53.6613 Z M282.4771,54.2269 C284.786633,54.2269 287.119733,53.8498333 289.4764,53.0957 L289.4764,53.0957 L289.2643,50.1263 C287.237567,51.0689667 285.045867,51.5403 282.6892,51.5403 C278.965667,51.5403 276.00805,50.2441333 273.81635,47.6518 C271.62465,45.0594667 270.481667,41.2888 270.3874,36.3398 L270.3874,36.3398 L291.5974,36.3398 C291.644533,35.7270667 291.6681,34.8551 291.6681,33.7239 C291.6681,22.5061667 287.897433,16.8973 280.3561,16.8973 C276.5383,16.8973 273.415717,18.55875 270.98835,21.88165 C268.560983,25.20455 267.3473,29.6233 267.3473,35.1379 C267.3473,41.3595 268.6906,46.0964 271.3772,49.3486 C274.0638,52.6008 277.763767,54.2269 282.4771,54.2269 Z M288.6987,33.7239 L270.3874,33.7239 C270.575933,29.3405 271.5893,25.84085 273.4275,23.22495 C275.2657,20.60905 277.551667,19.3011 280.2854,19.3011 C285.894267,19.3011 288.6987,24.1087 288.6987,33.7239 L288.6987,33.7239 Z M302.2629,53.4492 L302.2629,0 L299.2228,0 L299.2228,53.4492 L302.2629,53.4492 Z M314.908,53.4492 L314.908,0 L311.8679,0 L311.8679,53.4492 L314.908,53.4492 Z M338.5925,54.2269 C340.902033,54.2269 343.235133,53.8498333 345.5918,53.0957 L345.3797,50.1263 C343.352967,51.0689667 341.161267,51.5403 338.8046,51.5403 C335.081067,51.5403 332.12345,50.2441333 329.93175,47.6518 C327.74005,45.0594667 326.597067,41.2888 326.5028,36.3398 L347.7128,36.3398 C347.759933,35.7270667 347.7835,34.8551 347.7835,33.7239 C347.7835,22.5061667 344.012833,16.8973 336.4715,16.8973 C332.6537,16.8973 329.531117,18.55875 327.10375,21.88165 C324.676383,25.20455 323.4627,29.6233 323.4627,35.1379 C323.4627,41.3595 324.806,46.0964 327.4926,49.3486 C330.1792,52.6008 333.879167,54.2269 338.5925,54.2269 Z M344.8141,33.7239 L326.5028,33.7239 C326.691333,29.3405 327.7047,25.84085 329.5429,23.22495 C331.3811,20.60905 333.667067,19.3011 336.4008,19.3011 C342.009667,19.3011 344.8141,24.1087 344.8141,33.7239 L344.8141,33.7239 Z M359.2369,53.4492 L359.2369,35.5621 C359.2369,30.8016333 359.708233,27.4080333 360.6509,25.3813 C362.3477,21.5635 364.8929,19.6546 368.2865,19.6546 C370.218967,19.6546 371.71545,20.2673333 372.77595,21.4928 C373.83645,22.7182667 374.519883,24.2029667 374.82625,25.9469 C375.132617,27.6908333 375.2858,29.9768 375.2858,32.8048 L375.2858,32.8048 L375.2858,53.4492 L378.3259,53.4492 L378.3259,30.8252 C378.3259,26.3475333 377.607117,22.9068 376.16955,20.503 C374.731983,18.0992 372.292833,16.8973 368.8521,16.8973 C366.683967,16.8973 364.7515,17.56895 363.0547,18.91225 C361.3579,20.25555 360.0853,22.1291 359.2369,24.5329 L359.2369,24.5329 L359.0955,24.5329 C359.0955,21.9405667 359.001233,19.6310333 358.8127,17.6043 L358.8127,17.6043 L355.8433,17.6043 C356.078967,20.0081 356.1968,23.4252667 356.1968,27.8558 L356.1968,27.8558 L356.1968,53.4492 L359.2369,53.4492 Z M401.162,53.6613 C402.528867,53.6613 403.966433,53.4963333 405.4747,53.1664 L405.4747,53.1664 L405.2626,50.4798 C404.084267,50.7626 402.835233,50.904 401.5155,50.904 C397.791967,50.904 394.846133,49.45465 392.678,46.55595 C390.509867,43.65725 389.4258,39.9690667 389.4258,35.4914 C389.4258,31.108 390.474517,27.4551667 392.57195,24.5329 C394.669383,21.6106333 397.5563,20.1495 401.2327,20.1495 C402.6467,20.1495 403.9193,20.3144667 405.0505,20.6444 L405.0505,20.6444 L405.2626,17.8871 C404.1314,17.6043 402.764533,17.4629 401.162,17.4629 C396.6372,17.4629 393.019717,19.1597 390.30955,22.5533 C387.599383,25.9469 386.2443,30.2831667 386.2443,35.5621 C386.2443,40.8881667 387.599383,45.2362167 390.30955,48.60625 C393.019717,51.9762833 396.6372,53.6613 401.162,53.6613 Z M424.907,54.2269 C427.216533,54.2269 429.549633,53.8498333 431.9063,53.0957 L431.9063,53.0957 L431.6942,50.1263 C429.667467,51.0689667 427.475767,51.5403 425.1191,51.5403 C421.395567,51.5403 418.43795,50.2441333 416.24625,47.6518 C414.05455,45.0594667 412.911567,41.2888 412.8173,36.3398 L412.8173,36.3398 L434.0273,36.3398 C434.074433,35.7270667 434.098,34.8551 434.098,33.7239 C434.098,22.5061667 430.327333,16.8973 422.786,16.8973 C418.9682,16.8973 415.845617,18.55875 413.41825,21.88165 C410.990883,25.20455 409.7772,29.6233 409.7772,35.1379 C409.7772,41.3595 411.1205,46.0964 413.8071,49.3486 C416.4937,52.6008 420.193667,54.2269 424.907,54.2269 Z M431.1286,33.7239 L412.8173,33.7239 C413.005833,29.3405 414.0192,25.84085 415.8574,23.22495 C417.6956,20.60905 419.981567,19.3011 422.7153,19.3011 C428.324167,19.3011 431.1286,24.1087 431.1286,33.7239 L431.1286,33.7239 Z" fill="#212220" fill-rule="nonzero"></path></g><g><g transform="translate(228.000000, 48.000035) scale(-1, 1) rotate(-180.000000) translate(-228.000000, -48.000035) translate(0.000000, 0.000035)" fill="#017167" fill-rule="nonzero" id="logo"><path d="M305.779065,1.2360723 L260.443245,1.2360723 L260.443245,21.265767 L293.156385,21.265767 L293.156385,38.160357 L276.26538,38.160357 C268.97991,38.160357 262.938465,43.905087 262.756155,51.219162 L262.938465,82.223532 C262.938465,89.362452 268.97991,95.110752 276.26538,95.110752 L315.910095,95.110752 L315.910095,74.734302 L289.0668,74.734302 L289.0668,59.058732 L305.779065,59.058732 C313.24329,59.058732 319.288305,53.310417 319.113135,46.167942 L319.113135,14.123292 C319.288305,6.9843723 313.24329,1.0609023 305.779065,1.2360723 M343.11087,95.110752 L381.332805,95.110752 L381.332805,74.559132 L356.2662,74.559132 L356.2662,21.090597 L381.332805,21.090597 L381.332805,1.2360723 L343.28961,1.2360723 C335.82183,1.0609023 329.776815,6.9843723 329.776815,14.123292 L329.605215,82.223532 C329.605215,89.362452 335.64666,95.110752 343.11087,95.110752 M0,1.2360723 L0,95.110752 L27.022035,95.110752 L43.02291,55.748442 L43.02291,95.110752 L70.044945,95.110752 L70.044945,1.2360723 L43.02291,1.2360723 L26.843295,41.295462 L27.022035,1.2360723 L0,1.2360723 Z M83.911665,1.2360723 L83.911665,95.110752 L136.17906,95.110752 L136.17906,74.734302 L110.75496,74.734302 L110.75496,59.058732 L136.17906,59.058732 L136.17906,38.160357 L110.75496,38.160357 L110.75496,21.090597 L136.17906,21.090597 L136.17906,1.2360723 L83.911665,1.2360723 Z M154.84317,1.2360723 L154.84317,74.559132 L141.333945,74.559132 L141.333945,95.110752 L194.133975,95.110752 L194.133975,74.559132 L180.621165,74.559132 L180.621165,1.2360723 L154.84317,1.2360723 Z M198.93495,74.734302 L198.93495,95.110752 L255.11319,95.110752 L255.11319,74.383962 L221.8674,21.090597 L253.51167,21.090597 L253.51167,0.8893173 L192.71478,0.8893173 L192.53604,21.090597 L225.778245,74.734302 L198.93495,74.734302 Z M389.51199,1.2360723 L389.51199,95.110752 L416.355285,95.110752 L416.355285,59.058732 L428.977965,59.058732 L428.977965,95.110752 L456,95.110752 L456,1.2360723 L428.977965,1.2360723 L428.977965,38.160357 L416.355285,38.160357 L416.355285,1.2360723 L389.51199,1.2360723 Z"></path></g></g></g></svg>
