<?xml version="1.0" encoding="UTF-8" standalone="no"?>
<svg
   class=""
   width="146.67834"
   height="30.307552"
   viewBox="0 0 456.00002 89.944994"
   version="1.1"
   title="Netzsch Logo"
   alt="Netzsch Logo"
   id="svg3"
   xmlns="http://www.w3.org/2000/svg"
   xmlns:svg="http://www.w3.org/2000/svg">
  <defs
     id="defs3" />
  <g
     stroke="none"
     stroke-width="1"
     fill="none"
     fill-rule="evenodd"
     id="g3"
     transform="translate(-6.2176871,-3.1469086)">
    <g
       id="g2"
       transform="translate(6.2176871)">
      <g
         transform="matrix(1,0,0,-1,0,96.000035)"
         fill="#017167"
         fill-rule="nonzero"
         id="logo">
        <path
           d="M 305.77906,1.2360723 H 260.44324 V 21.265767 h 32.71314 v 16.89459 h -16.891 c -7.28547,0 -13.32692,5.74473 -13.50923,13.058805 l 0.18231,31.00437 c 0,7.13892 6.04145,12.88722 13.32692,12.88722 h 39.64471 V 74.734302 H 289.0668 v -15.67557 h 16.71226 c 7.46423,0 13.50924,-5.748315 13.33407,-12.89079 V 14.123292 C 319.2883,6.9843723 313.24329,1.0609023 305.77906,1.2360723 M 343.11087,95.110752 H 381.3328 V 74.559132 H 356.2662 V 21.090597 h 25.0666 V 1.2360723 h -38.04319 c -7.46778,-0.17517 -13.5128,5.7483 -13.5128,12.8872197 l -0.1716,68.10024 c 0,7.13892 6.04145,12.88722 13.50566,12.88722 M 0,1.2360723 V 95.110752 H 27.022035 L 43.02291,55.748442 v 39.36231 H 70.044945 V 1.2360723 H 43.02291 L 26.843295,41.295462 27.022035,1.2360723 Z m 83.911665,0 V 95.110752 h 52.267395 v -20.37645 h -25.4241 v -15.67557 h 25.4241 V 38.160357 h -25.4241 v -17.06976 h 25.4241 V 1.2360723 Z m 70.931505,0 V 74.559132 h -13.50923 v 20.55162 h 52.80003 V 74.559132 H 180.62116 V 1.2360723 Z m 44.09178,73.4982297 v 20.37645 h 56.17824 V 74.383962 L 221.8674,21.090597 h 31.64427 V 0.8893173 h -60.79689 l -0.17874,20.2012797 33.2422,53.643705 z M 389.51199,1.2360723 V 95.110752 h 26.84329 v -36.05202 h 12.62268 v 36.05202 H 456 V 1.2360723 H 428.97796 V 38.160357 H 416.35528 V 1.2360723 Z"
           id="path2" />
      </g>
    </g>
  </g>
</svg>
